<svg width="40" height="40" viewBox="0 0 40 40" fill="none" xmlns="http://www.w3.org/2000/svg">
<path d="M20 0C14.6957 0 9.60859 2.10714 5.85786 5.85786C2.10714 9.60859 0 14.6957 0 20C0 25.3043 2.10714 30.3914 5.85786 34.1421C9.60859 37.8929 14.6957 40 20 40C25.3043 40 30.3914 37.8929 34.1421 34.1421C37.8929 30.3914 40 25.3043 40 20C40 14.6957 37.8929 9.60859 34.1421 5.85786C30.3914 2.10714 25.3043 0 20 0Z" fill="#000C9D"/>
<path d="M14.9571 12C15.6615 12 16.3019 12.0582 16.8841 12.1863C17.4605 12.3086 17.9553 12.5123 18.3745 12.7976C18.7878 13.077 19.108 13.4555 19.3351 13.9212C19.5621 14.3869 19.6728 14.9691 19.6728 15.6561C19.6728 16.4013 19.5039 17.0184 19.1663 17.5191C18.8286 18.0139 18.3279 18.4215 17.6584 18.7358C18.5666 18.9978 19.2419 19.4578 19.6844 20.1098C20.1327 20.7677 20.3539 21.5536 20.3539 22.4793C20.3539 23.2303 20.2084 23.8707 19.9231 24.4121C19.632 24.9594 19.2419 25.4077 18.7529 25.7511C18.2639 26.0946 17.705 26.3508 17.0762 26.5196C16.4533 26.6826 15.8071 26.77 15.1492 26.77H8V12H14.9571ZM14.5379 17.9615C15.1143 17.9615 15.5917 17.8276 15.9701 17.5482C16.3427 17.2746 16.5231 16.8263 16.5231 16.2034C16.5231 15.8599 16.4649 15.5746 16.3427 15.3534C16.2146 15.1321 16.0516 14.9633 15.842 14.841C15.6324 14.713 15.3995 14.6315 15.1259 14.5791C14.8581 14.5267 14.5787 14.5034 14.2876 14.5034H11.2486V17.9557H14.5379V17.9615ZM14.7184 24.2491C15.0386 24.2491 15.3413 24.22 15.6324 24.156C15.9235 24.0919 16.1797 23.993 16.4009 23.8416C16.6163 23.696 16.7968 23.5039 16.9307 23.2536C17.0646 23.0032 17.1228 22.683 17.1228 22.2988C17.1228 21.5361 16.9074 21.0005 16.4824 20.6687C16.0574 20.3427 15.4869 20.1855 14.7882 20.1855H11.2544V24.2491H14.7184Z" fill="white"/>
<path d="M25.0276 24.1966C25.47 24.6274 26.1046 24.8428 26.9255 24.8428C27.5193 24.8428 28.0316 24.6915 28.4566 24.3945C28.8816 24.0976 29.1436 23.7774 29.2426 23.4456H31.8275C31.4141 24.7322 30.7795 25.6521 29.9237 26.2051C29.0737 26.7582 28.0375 27.0376 26.8265 27.0376C25.9824 27.0376 25.2255 26.9037 24.5444 26.6301C23.8632 26.3565 23.2985 25.9781 22.8211 25.4832C22.3554 24.9825 21.9944 24.3945 21.7382 23.7017C21.4821 23.0148 21.354 22.2521 21.354 21.4254C21.354 20.6278 21.4879 19.8768 21.7499 19.1898C22.0177 18.497 22.3845 17.8974 22.8677 17.3967C23.3509 16.8902 23.9272 16.4943 24.6026 16.2032C25.2721 15.9121 26.0115 15.7666 26.8323 15.7666C27.7347 15.7666 28.5265 15.9413 29.2076 16.2964C29.883 16.6457 30.436 17.1173 30.8727 17.7111C31.3093 18.3049 31.6179 18.9802 31.81 19.7371C32.0021 20.4939 32.072 21.2857 32.0138 22.1182H24.2998C24.2998 22.9682 24.5851 23.7716 25.0276 24.1966ZM28.3984 18.5844C28.0491 18.2001 27.4611 17.9905 26.7392 17.9905C26.2676 17.9905 25.8834 18.072 25.569 18.2292C25.2663 18.3864 25.0159 18.5844 24.8238 18.8172C24.6317 19.0559 24.5036 19.3063 24.4279 19.5683C24.3522 19.8302 24.3057 20.0631 24.294 20.2727H29.0737C29.0097 19.5275 28.7535 18.9744 28.3984 18.5844Z" fill="white"/>
<path d="M29.685 12.9893H23.7002V14.4447H29.685V12.9893Z" fill="white"/>
</svg>
