<svg width="40" height="40" viewBox="0 0 40 40" fill="none" xmlns="http://www.w3.org/2000/svg">
<path d="M20 0C14.6957 0 9.60859 2.10714 5.85786 5.85786C2.10714 9.60859 0 14.6957 0 20C0 25.3043 2.10714 30.3914 5.85786 34.1421C9.60859 37.8929 14.6957 40 20 40C25.3043 40 30.3914 37.8929 34.1421 34.1421C37.8929 30.3914 40 25.3043 40 20C40 14.6957 37.8929 9.60859 34.1421 5.85786C30.3914 2.10714 25.3043 0 20 0Z" fill="#000C9D"/>
<path d="M20 8L8 15.625V24.3728L20 32L32 24.375V15.625L20 8ZM20 22.3906L16.6094 20.0402L20 17.7277L23.3906 20.0402L20 22.3906ZM21.1429 15.7746V11.3996L28.817 16.2768L25.3772 18.6607L21.1429 15.7746ZM18.8571 15.7746L14.6228 18.6607L11.183 16.2768L18.8571 11.3996V15.7746ZM12.625 20.0246L10.2857 21.6183V18.4018L12.625 20.0246ZM14.6116 21.4018L18.8571 24.346V28.6004L11.1942 23.7299L14.6116 21.4018ZM21.1429 24.346L25.3884 21.4018L28.8058 23.7299L21.1429 28.6004V24.346ZM27.375 20.0246L29.7143 18.4018V21.6183L27.375 20.0246Z" fill="white"/>
</svg>
