<svg width="40" height="40" viewBox="0 0 40 40" fill="none" xmlns="http://www.w3.org/2000/svg">
<path d="M20 0C14.6957 0 9.60859 2.10714 5.85786 5.85786C2.10714 9.60859 0 14.6957 0 20C0 25.3043 2.10714 30.3914 5.85786 34.1421C9.60859 37.8929 14.6957 40 20 40C25.3043 40 30.3914 37.8929 34.1421 34.1421C37.8929 30.3914 40 25.3043 40 20C40 14.6957 37.8929 9.60859 34.1421 5.85786C30.3914 2.10714 25.3043 0 20 0Z" fill="#000C9D"/>
<path d="M20 32C26.6274 32 32 26.6274 32 20C32 13.3726 26.6274 8 20 8C13.3726 8 8 13.3726 8 20C8 26.6274 13.3726 32 20 32Z" stroke="white" stroke-width="2" stroke-miterlimit="10"/>
<path d="M15.4734 8.76855C19.7353 12.7059 25.0478 24.4326 25.4321 30.7017" stroke="white" stroke-width="2" stroke-miterlimit="10"/>
<path d="M28.4385 11.4678C27.5161 15.3881 15.2769 20.2222 8.09399 18.5226" stroke="white" stroke-width="2" stroke-miterlimit="10"/>
<path d="M11.8862 28.8399C15.3795 21.6741 25.7738 18.2236 31.9745 20.6833" stroke="white" stroke-width="2" stroke-miterlimit="10"/>
</svg>
