<svg width="40" height="40" viewBox="0 0 40 40" fill="none" xmlns="http://www.w3.org/2000/svg">
<path d="M20 0C14.6957 0 9.60859 2.10714 5.85786 5.85786C2.10714 9.60859 0 14.6957 0 20C0 25.3043 2.10714 30.3914 5.85786 34.1421C9.60859 37.8929 14.6957 40 20 40C25.3043 40 30.3914 37.8929 34.1421 34.1421C37.8929 30.3914 40 25.3043 40 20C40 14.6957 37.8929 9.60859 34.1421 5.85786C30.3914 2.10714 25.3043 0 20 0Z" fill="#000C9D"/>
<path d="M30.1421 12.8475C30.1148 12.8272 30.0886 12.8058 30.0598 12.7886C29.3231 12.2933 28.4285 12 27.4622 12H12.5378C11.5716 12 10.6769 12.2933 9.94019 12.7884C9.91141 12.8057 9.88523 12.8272 9.85793 12.8473C8.73386 13.6398 8 14.912 8 16.3487V24.49C8 26.0062 8.8152 27.342 10.0464 28.1206C10.0518 28.1243 10.0576 28.1266 10.0629 28.1302C10.7755 28.5767 11.6247 28.8386 12.5378 28.8386H27.4622C28.6002 28.8386 29.6388 28.4322 30.4362 27.7666C30.4801 27.7358 30.5191 27.6981 30.5584 27.6602C31.4431 26.8661 32 25.7405 32 24.49V16.3487C32 14.912 31.2661 13.6398 30.1421 12.8475ZM12.5379 14.0411H27.4623C27.5002 14.0411 27.5371 14.0448 27.5746 14.0466L21.0618 20.2881C20.4763 20.8492 19.5238 20.8487 18.9398 20.2891L12.426 14.0463C12.4635 14.0445 12.5004 14.0408 12.5383 14.0408L12.5379 14.0411ZM10.659 25.9295C10.3288 25.5344 10.1299 25.0344 10.1299 24.49V16.3487C10.1299 15.8892 10.2723 15.4617 10.5149 15.1017L16.5333 20.8698L10.659 25.9295ZM27.4622 26.7976H12.8367L18.1226 22.2452C18.6979 22.5785 19.348 22.749 19.9998 22.749C20.7066 22.749 21.413 22.5518 22.0223 22.1599L27.8882 26.7595C27.7496 26.7832 27.6077 26.7978 27.4622 26.7978L27.4622 26.7976ZM29.8701 24.49C29.8701 24.8477 29.7823 25.1853 29.63 25.4878L23.5897 20.7516L29.485 15.1014C29.7275 15.4614 29.87 15.8889 29.87 16.3484L29.8701 24.49Z" fill="white"/>
</svg>
