<svg width="40" height="40" viewBox="0 0 40 40" fill="none" xmlns="http://www.w3.org/2000/svg">
<path d="M20 0C14.6957 0 9.60859 2.10714 5.85786 5.85786C2.10714 9.60859 0 14.6957 0 20C0 25.3043 2.10714 30.3914 5.85786 34.1421C9.60859 37.8929 14.6957 40 20 40C25.3043 40 30.3914 37.8929 34.1421 34.1421C37.8929 30.3914 40 25.3043 40 20C40 14.6957 37.8929 9.60859 34.1421 5.85786C30.3914 2.10714 25.3043 0 20 0Z" fill="#000C9D"/>
<path d="M10.6223 17.7373L10.8003 18.0023C10.4442 17.9919 10.0712 17.9573 10 17.8043C10 17.797 10.0021 17.7897 10.0042 17.7823C10.2032 17.73 10.374 17.7268 10.6223 17.7373ZM12.5142 18.5439L12.6001 18.8058L12.399 18.8142L12.4471 18.546C12.4702 18.546 12.4911 18.546 12.5142 18.5439ZM13.1993 20.4558C13.0212 20.6192 12.884 20.7281 12.7782 20.9764C12.6315 20.8559 12.555 20.6171 12.5079 20.35C12.4555 20.0587 12.4388 19.735 12.399 19.493L12.4115 19.3694L12.6179 19.3548L13.1438 20.35L13.1993 20.4547V20.4558ZM12.9332 18.0023C12.9593 17.8234 12.9862 17.6446 13.0139 17.466L13.082 17.4618C13.0317 17.642 12.9814 17.8222 12.9332 18.0023ZM12.7897 15.5699L13.7325 15.8255C13.731 15.8394 13.7296 15.8534 13.7283 15.8674C13.2894 16.1921 12.884 16.3346 12.6661 16.9212L12.7488 15.616L12.7897 15.5709V15.5699ZM13.6697 14.2185C13.6089 14.8261 13.6948 15.0943 13.8006 15.4714C13.9682 15.5908 14.0353 15.6631 13.9808 15.8401C13.6979 15.6998 13.3983 15.5531 12.9646 15.5761C12.9541 15.564 12.9436 15.5518 12.9332 15.5395C13.0547 15.0607 13.2915 14.7664 13.4748 14.3871L13.6707 14.2174L13.6697 14.2185ZM15.0252 13.4098L15.0661 13.4066C14.9362 13.855 14.8838 14.8889 14.6565 15.2996C14.1191 15.045 14.1296 13.9419 14.7309 13.5061L15.0252 13.4098ZM14.5245 16.7306L14.977 17.2219C14.799 17.7687 14.4627 18.1804 14.3202 18.8142L14.0531 18.7933C13.8247 18.1553 14.3956 17.1161 14.4931 16.651L14.9121 16.6991C14.9645 16.8301 15.0148 16.961 15.0661 17.093L14.5245 16.7306ZM15.7627 13.4056C15.7166 13.9367 15.834 14.2122 15.8654 14.6228C15.5993 14.759 15.3322 14.8931 15.0661 15.0283C15.1155 14.4785 15.2472 13.9393 15.4568 13.4286L15.7627 13.4056ZM16.0728 12.5989L16.1325 12.5947L16.0424 12.8535L15.8654 12.865L16.0016 12.7047L16.0728 12.5989ZM16.1325 15.0765L15.3322 15.5688C15.3489 15.2713 15.7282 14.8701 16.0456 14.759L16.1189 14.7988L16.1325 15.0765ZM16.6668 13.2139C16.6175 13.4883 16.5694 13.7617 16.5222 14.0362L16.3724 14.1305L16.2928 14.2174C16.1482 14.0142 16.1116 13.5156 16.143 13.1363L16.6668 13.2139ZM17.199 12.5958C17.199 12.6063 17.1969 12.6146 17.1958 12.623L16.9915 12.8189C16.8553 12.8713 16.8386 12.8692 16.6668 12.8629C16.6888 12.7739 16.7139 12.6848 16.738 12.5958H17.199ZM17.7332 11.5147L17.4944 12.0542L16.6668 11.9945L16.6699 11.9505C17.0104 11.7933 17.3089 11.6069 17.7322 11.5136L17.7332 11.5147ZM17.3016 12.9184L17.3896 12.8661L17.4661 13.1363L17.199 13.084L17.3016 12.9174V12.9184ZM17.9993 13.7177C17.6819 13.8414 17.243 13.8068 16.9884 13.9482C16.9701 13.8399 16.9516 13.7317 16.9329 13.6235L17.0984 13.4066C17.3676 13.5114 17.6368 13.6182 17.905 13.724L17.9993 13.7177ZM17.3173 14.2038L16.9549 14.2174C16.9465 14.1797 16.9402 14.142 16.9329 14.1033C17.1874 13.9995 17.6148 13.9901 17.9993 13.9472L17.5939 14.1703L17.3173 14.2038ZM18.2654 14.2038C17.9605 14.2803 17.6683 14.5495 17.4682 14.759C17.4294 14.5139 17.8998 14.0823 18.125 13.9472C18.2245 14.0362 18.235 14.0268 18.2654 14.2038ZM18.7997 10.9741L18.7955 11.016L18.4749 11.2098L17.9993 11.2444L18.0035 11.2025L18.7997 10.9741ZM18.368 11.785L18.2654 11.6331C18.5063 11.4309 19.0375 11.5419 19.3329 11.5723L18.368 11.785ZM20.7544 10.9888C21.1997 11.0255 21.6072 11.1302 21.9172 11.324L21.999 11.3188L21.9497 11.3879L21.5234 11.5136C21.2667 11.478 21.01 11.4403 20.7544 11.4036L19.0657 11.1637L19.0699 11.1292C19.6212 10.9982 20.1891 10.9513 20.7544 10.9899V10.9888ZM22.528 10.8463L22.4337 10.9741C22.1781 10.9559 21.9337 10.8618 21.7318 10.7039L22.5322 10.8055L22.528 10.8463ZM23.9485 11.8457L24.1695 11.7619L24.399 11.9589C24.3675 12.1841 24.1507 12.3685 23.9841 12.5874L23.8563 12.5958C23.5085 12.0196 23.0696 11.39 22.2996 11.1679L22.2661 11.0998L22.5772 10.9741C23.1 11.1564 23.5357 11.433 24.0208 11.5922C24.0836 11.7441 24.0637 11.6928 23.9474 11.8457H23.9485ZM24.5917 13.1269L24.5309 13.0672L24.399 13.0766L24.6189 12.8671L24.5917 13.1269ZM24.8274 16.1104C25.1878 16.4226 25.28 16.8751 25.1302 17.4618C24.9751 17.114 24.8211 16.7651 24.665 16.4173C24.7174 16.3398 24.7667 16.2623 24.818 16.1848C24.8211 16.1596 24.8232 16.1345 24.8274 16.1104ZM24.9322 13.68L24.928 13.7303L24.7384 13.9472L24.665 13.8036C24.7792 13.5994 24.6965 13.7094 24.8463 13.6884L24.9322 13.68ZM25.1543 13.6769L25.9986 13.9901C25.9976 14.0184 25.9944 14.0467 25.9913 14.0739C25.92 14.1232 25.8488 14.1703 25.7776 14.2174L24.9322 13.9053L24.9395 13.8204L25.1543 13.6769ZM26.799 14.759L26.3307 14.4479L26.2657 14.3222C26.469 14.1965 26.4396 14.2028 26.6544 14.2447C26.7015 14.4165 26.7508 14.5883 26.799 14.759ZM27.065 14.6564L26.9708 14.759C26.8576 14.7004 26.8377 14.626 26.799 14.4877L27.043 14.5946L27.065 14.6564ZM26.866 13.8822L26.799 13.8874C26.8723 13.8173 26.9456 13.7471 27.021 13.6779C26.9687 13.746 26.9163 13.8141 26.866 13.8822ZM28.1325 15.242L28.0016 15.2996C27.7635 15.1662 27.5257 15.0325 27.2882 14.8984C27.2136 14.7972 27.1392 14.696 27.065 14.5946C27.4348 14.3222 27.4485 14.6386 27.7973 14.8114L28.1325 15.242ZM28.3986 15.4808L28.1325 15.3834L28.2928 15.2996L28.3986 15.4808ZM28.0739 15.9166C28.1702 16.1104 28.1702 16.0559 28.3986 16.0266L27.989 16.3807L27.5983 15.6348L27.6035 15.5887C27.8916 15.5269 27.9838 15.6306 28.2656 15.6725L28.3735 15.8464L28.0739 15.9166ZM28.1325 16.4016L28.6657 16.1104C28.5589 16.3514 28.4196 16.475 28.2551 16.651L28.1325 16.4016ZM29.199 17.4335C29.0544 17.5582 28.9601 17.598 28.6867 17.621L28.9067 17.6451L28.9025 17.6839L28.1514 18.0023L28.1325 17.0386L28.65 16.4257L28.7443 16.3807L29.199 17.4335ZM28.9318 15.9543C30.4047 15.5437 30.1198 16.3252 29.4629 16.9212C29.2849 16.5996 29.1078 16.277 28.9318 15.9543ZM30.2654 16.1104C29.7227 18.6602 29.618 18.7995 27.6988 19.8953C27.6674 19.844 27.6328 19.7937 27.5983 19.7434L27.6663 19.4585C28.9182 19.1023 29.6295 18.4465 29.5551 16.9621L30.1826 16.1555L30.2654 16.1104ZM30.3303 16.1104C30.3094 16.0224 30.2884 15.9344 30.2654 15.8464L30.4644 15.8401L30.3303 16.1104ZM27.065 18.59L27.0839 18.3082L27.1007 18.0673L27.285 18.0055C27.2945 18.0055 27.3028 18.0034 27.3112 18.0023C27.3636 18.3218 27.3112 18.5576 27.2065 18.8142C27.1164 18.7566 27.0986 18.7325 27.065 18.59ZM25.9986 20.9555L26.0028 20.9083L26.3527 20.0713L26.426 19.8953L27.042 19.9372C27.0514 19.9833 27.0577 20.0283 27.0608 20.0713C27.0881 20.3898 26.9781 20.6443 26.865 20.9764L25.9986 20.9555ZM26.2657 22.0407L26.2731 21.6217L26.2835 21.517L26.734 21.5505L26.799 21.5452C26.6952 21.716 26.5926 21.8868 26.491 22.0586L26.2657 22.0407ZM26.0017 20.2913L26.029 20.2777L26.2416 20.1677L26.2657 20.1656L26.2343 20.2777L26.1096 20.7061L25.9986 20.3248L26.0017 20.2913ZM25.5859 21.6374L25.4654 21.517C25.5827 21.5987 25.5062 21.5191 25.5859 21.6374ZM24.9322 21.3158C25.082 21.2215 25.2443 21.2509 25.4664 21.253L25.4004 21.4698C25.2171 21.5431 25.1909 21.5159 24.9845 21.4939L24.9322 21.3158ZM25.259 22.3278L25.4654 22.816C25.3062 22.9239 25.1459 23.0307 24.9866 23.1397C24.8442 22.9438 24.9992 22.3959 25.259 22.3278ZM24.7321 20.6307L24.665 20.6359L24.753 20.4359L24.7321 20.6307ZM25.5 20.7061L25.4654 20.6841L25.5827 20.4369L25.6215 20.4359L25.7325 20.6957L25.5 20.7061ZM27.3468 17.1915L27.3322 17.1004C27.4024 17.0145 27.4474 16.961 27.5679 16.9223L27.5993 17.0815C27.5469 17.1161 27.4945 17.1496 27.4432 17.1852L27.3468 17.1915ZM27.3322 17.8515C27.284 17.9154 27.1981 17.951 27.1373 18.0023L27.065 16.651L27.3322 17.8515ZM26.843 19.6638C27.0189 19.5653 27.0441 19.6565 27.065 19.8943H26.5318L26.5412 19.8105L26.843 19.6638ZM26.5811 18.9169L26.7015 18.8142L26.799 18.9881L26.7539 19.0845L26.5318 19.0583L26.5811 18.9169ZM26.5318 19.6334L26.2542 19.8953L26.073 19.8649L25.9997 19.8723C26.0416 19.7895 26.0856 19.7067 26.1285 19.625L26.5318 19.6334ZM25.5261 19.4794C25.4151 19.4019 25.4947 19.4124 25.4738 19.3537L25.5261 19.4794ZM26.3663 18.2726L25.4654 17.8054C25.5073 17.1873 25.5827 16.4771 25.522 15.8401C26.2165 16.0916 26.8398 17.2219 26.3663 18.2726ZM25.7325 18.2726C25.9536 18.3899 25.942 18.4968 26.249 18.5911C26.3024 18.7912 26.2207 18.8708 26.0929 19.0834L25.766 19.0709C25.699 18.7147 25.7723 18.5104 25.7325 18.2726ZM25.7933 20.021C25.6812 19.9435 25.7619 19.954 25.7409 19.8953L25.7933 20.021ZM27.5983 17.4188L27.6014 17.3686L27.8423 17.1915C27.8842 17.4681 27.8685 17.929 27.8057 18.2726C27.6632 18.1616 27.637 17.6923 27.5983 17.4188ZM27.5983 18.2726C27.6527 18.1825 27.7072 18.0924 27.7596 18.0023L27.6653 18.2684L27.5983 18.2726ZM29.1539 17.4649L29.199 17.4618C29.2115 18.4978 28.5725 18.6864 27.7323 19.0751L27.5983 19.0845L28.122 17.9992L29.1539 17.4649ZM27.5721 15.441C27.5804 15.4682 27.5899 15.4944 27.5972 15.5217L27.5312 15.5699L27.3311 15.2996L27.5721 15.441ZM27.3311 15.8915L27.3385 15.8443C27.358 15.8428 27.3776 15.8414 27.3971 15.8401L27.5983 16.1104C27.4432 16.0371 27.4181 16.0193 27.3311 15.8915ZM27.5972 16.5829L27.2379 16.9212L26.4658 15.8003L25.4643 14.9308L25.6843 14.759C26.1694 14.9686 27.0179 15.3677 27.1887 15.8663C27.2442 16.0287 27.0525 16.1628 27.1824 16.2979C27.3374 16.4593 27.4924 16.344 27.5983 16.5818L27.5972 16.5829ZM25.347 18.2726L25.4287 18.3051L25.4643 19.0845L25.3397 19.0552C25.2223 18.9682 25.1406 18.5659 25.2475 18.391L25.347 18.2726ZM24.7562 19.6282L24.8421 19.625L24.9311 19.8366L24.7949 19.889L24.664 19.8953C24.6954 19.8063 24.7268 19.7172 24.7562 19.6282ZM24.5131 23.9505L24.3979 23.5555C24.5624 23.5084 24.7258 23.4613 24.8903 23.412L24.9322 23.4099C24.93 23.4221 24.9283 23.4343 24.9269 23.4466L24.5131 23.9505ZM24.1308 22.8694C24.18 22.7101 24.2146 22.6861 24.3036 22.5981L24.377 22.6274L24.3979 22.6965L24.2334 22.8579L24.1308 22.8683V22.8694ZM24.2565 23.1397L24.1308 23.0014L24.3979 22.8694L24.3288 23.1344L24.2565 23.1397ZM23.9757 24.3653C23.938 24.336 23.9024 24.3056 23.8647 24.2742L23.9464 24.2689L24.3581 23.9505L24.3979 24.2752L24.0826 24.491L23.9757 24.3653ZM23.9967 27.462C23.3545 27.4892 22.9701 27.3258 22.4463 27.2797L21.846 26.0928L21.7308 25.9734C22.7385 25.8539 23.3723 25.3679 24.1193 25.0316C24.3832 25.283 24.9814 26.5631 24.4545 27.1299C24.3288 27.3237 24.1884 27.3436 23.9967 27.462ZM21.2395 26.1284L21.4804 26.1127C21.8439 26.3568 22.0911 26.7936 22.265 27.1948L21.1976 26.8858C21.2772 26.6155 21.3107 26.3411 21.2395 26.1284ZM20.4726 25.1081L21.6753 24.7613L23.5651 24.9457L23.5986 25.041C23.0361 25.2945 22.396 25.5082 21.7507 25.8351C21.0519 25.8906 20.8833 25.6297 20.3993 25.4579L20.4726 25.1081ZM20.3983 26.3819L20.4223 26.1472L20.8822 26.1127C20.9199 26.317 20.9598 26.4311 20.9032 26.6532L20.3983 26.3809V26.3819ZM19.864 26.8051L20.0431 26.7067C20.2631 26.561 20.4276 26.7548 20.6643 26.8313L20.5701 26.9235L19.864 26.8051ZM20.3825 26.383C20.3244 26.3571 20.2665 26.3309 20.2086 26.3044L20.1311 26.1127L20.3983 26.1294L20.3825 26.383ZM19.5979 26.383L19.865 26.6124C19.865 26.7538 19.8525 26.7381 19.82 26.9235L19.5979 26.383ZM18.9065 25.3699C19.1569 25.2935 19.49 25.3102 19.865 25.3019L19.5162 25.5721L18.7986 25.5019L18.9065 25.3699ZM18.2654 11.8216C18.7609 11.3481 20.0033 11.4895 20.3144 11.7902L20.3983 11.7829C19.9845 12.1694 19.3433 12.2134 18.9495 12.5958C18.6404 12.3905 18.3848 12.2585 18.2654 11.8216ZM20.9891 12.5958L21.1986 12.8336C21.0121 12.8441 20.8162 12.8556 20.6203 12.8723C20.1793 12.9101 19.7435 12.9761 19.4387 13.1342L19.3989 13.1363C19.3768 13.1018 19.3548 13.0672 19.3329 13.0326C19.8333 12.7701 20.3857 12.622 20.9503 12.5989L20.9891 12.5958ZM22.0283 11.2444C22.3729 11.5901 22.8873 11.7954 23.0654 12.3255C22.3426 11.9892 21.23 11.9945 20.6664 11.4592C21.163 11.565 21.5862 11.5252 22.0283 11.2444ZM22.2661 13.1363L23.255 13.2725L23.3325 13.2662L22.5395 13.9472C22.4138 13.6968 22.3845 13.3574 22.2661 13.1363ZM23.5368 14.2929L23.3325 14.2614L23.5986 14.2174L23.5357 14.2929H23.5368ZM23.3325 13.6465L23.5766 13.4066L23.5986 13.6769L23.4216 13.6381L23.3325 13.6465ZM23.8165 22.5928L23.6992 22.5981L23.5986 22.5038L23.6761 22.4022L23.8647 22.3288L23.8165 22.5928ZM23.6038 23.0873C23.6353 23.0496 23.6688 23.0119 23.7023 22.9741L23.7107 22.8694L23.8657 23.1156L23.5986 23.1397L23.6038 23.0873ZM23.498 23.9505L23.3325 23.7514L23.8657 23.6802L23.6112 23.9421L23.498 23.9505ZM23.5986 24.7613L23.0654 24.6974L23.4425 24.491L23.5986 24.7613ZM23.2246 23.9987L23.3325 24.1013L22.946 24.1998L22.5322 24.2208L23.1083 23.9505L23.2246 23.9987ZM21.7329 12.3255C22.044 12.3339 22.3729 12.4125 22.5322 12.5958C22.3174 12.5748 21.9309 12.6094 21.8334 12.4439L21.7329 12.3255ZM22.0031 13.4066C22.155 13.5397 22.2085 13.6968 22.1812 13.9472C21.9466 13.8665 22.0073 13.6098 22.0031 13.4066ZM22.265 15.111L22.2745 15.0649C22.8056 14.9497 22.9198 15.1341 22.6778 15.2996C22.4683 15.2703 22.3729 15.1917 22.265 15.111ZM22.9491 22.0575L23.0654 22.0868C23.0638 22.0994 23.0624 22.112 23.0612 22.1246L22.7993 22.3278L22.9083 22.0607L22.9491 22.0575ZM22.8024 15.4641L23.0015 15.2996L23.0654 15.5699L22.7993 15.5112L22.8014 15.4641H22.8024ZM23.5986 22.6923L22.9543 22.861L22.7993 22.8683C22.7993 22.86 22.8014 22.8505 22.8035 22.8421C23.0444 22.794 23.1995 22.7143 23.3419 22.5981L23.5682 22.64L23.5986 22.6923ZM23.1387 22.0575L23.0654 21.9077L23.2487 21.7872L23.3325 21.8323L23.2278 22.0502L23.1387 22.0575ZM21.4657 23.9274L21.7832 23.6802L22.7658 23.764L22.7993 23.8373L22.1351 24.2208C21.889 24.1799 21.6763 24.071 21.5485 23.9211L21.4657 23.9274ZM20.9723 23.9505L21.4647 24.2208L20.6654 24.0793C20.768 24.0374 20.8697 23.9934 20.9723 23.9505ZM20.9325 24.5026C20.9314 24.5242 20.9303 24.5458 20.9294 24.5675L20.7775 24.6513L20.6654 24.666L20.6696 24.601C20.7859 24.447 20.766 24.4984 20.9315 24.5026H20.9325ZM19.6754 13.4998C19.6502 13.4727 19.6247 13.4458 19.599 13.4192C19.864 13.2746 20.282 13.2055 20.6926 13.173C21.031 13.1447 21.3641 13.1416 21.603 13.1363L21.7329 13.9472C21.384 13.9094 21.0519 13.8634 20.6926 13.8476C20.3822 13.8323 20.0709 13.8435 19.7624 13.8812C19.734 13.7539 19.705 13.6268 19.6754 13.4998ZM20.0672 24.3475L20.1322 24.4627L20.0693 24.7047L19.3329 24.7613C19.4114 24.5204 19.5288 24.4041 19.6555 24.2208L20.0672 24.3475ZM19.1579 23.4099C18.8227 23.3911 18.3639 23.1459 18.2654 22.8694L19.3329 23.1407L19.1579 23.4099ZM19.533 23.3953L19.3329 23.4099L19.3392 23.345L19.5612 23.1397C19.5508 23.2245 19.5424 23.3094 19.533 23.3953ZM18.7997 13.5093L19.1244 13.4066L19.3329 13.6685L19.1129 13.6769L18.7997 13.5093ZM18.7955 25.1164C18.7777 25.1751 18.7619 25.2348 18.7452 25.2945C18.719 25.2956 18.6928 25.2987 18.6677 25.3019C18.6228 25.2117 18.5777 25.1216 18.5325 25.0316L18.7997 25.0588L18.7955 25.1164ZM18.9432 23.9505L19.5654 24.0762L19.599 24.16L19.116 24.7613L18.5325 24.6754L18.9432 23.9505ZM23.5986 15.4777L23.7191 15.3006L23.7631 15.2996L24.0983 15.3834L24.1318 15.4316L23.7578 15.5699C23.7048 15.539 23.6517 15.5083 23.5986 15.4777ZM24.3204 14.604L24.1318 14.4888C24.3235 14.5589 24.2135 14.4793 24.3204 14.604ZM24.2596 15.8401L24.1318 15.7312L24.399 15.5699L24.2596 15.8401ZM24.1318 17.7321L24.5467 17.8347C24.6588 17.8787 24.6556 17.8902 24.665 18.0023C24.4869 17.9342 24.1894 17.8871 24.1318 17.7321ZM24.1737 16.9956L24.2303 16.9223L24.399 17.1915L24.1318 17.1391L24.1737 16.9956ZM18.7714 25.8906L18.7997 25.9618L18.4403 26.0991L18.2654 26.1127L18.2696 26.076L18.3921 25.8843C18.5619 25.8057 18.566 25.8571 18.7714 25.8906ZM17.9993 12.3245C18.2319 12.4984 18.2926 12.7121 18.256 13.4066C18.103 13.2107 18.0098 12.7948 17.9993 12.3255V12.3245ZM18.1522 11.785L18.1334 11.9809L18.0003 11.9903L18.1533 11.785H18.1522ZM17.9993 12.0552C17.992 12.1202 17.9867 12.1851 17.9783 12.2501L17.7322 12.205L17.9354 12.0594L17.9983 12.0552H17.9993ZM17.9993 27.7354L18.1313 26.3589L19.0657 26.1127L18.0831 27.6851L17.9993 27.7354ZM18.0653 24.0353L18.2088 23.9505C18.3398 24.1055 18.2224 24.3287 18.0988 24.491C17.9962 24.3947 17.9846 24.3339 18.0119 24.115L18.0653 24.0353ZM17.199 23.9033L17.5059 23.4099L17.9983 23.6991C17.8306 23.9631 17.6599 24.227 17.4902 24.491C17.3372 24.3548 17.243 24.1548 17.199 23.9044V23.9033ZM17.199 26.0205L17.6913 25.5721L17.9228 25.5931L17.9993 25.7188C17.9784 25.8508 17.9595 25.9817 17.9406 26.1127L17.199 26.0205ZM16.3997 25.6538L16.9863 25.3019L17.4326 25.372L17.4661 25.4338L16.9957 25.8424C16.7611 25.8183 16.605 25.7555 16.4824 25.6486L16.3986 25.6538H16.3997ZM16.3211 25.1311L16.5358 25.0316L16.628 25.0515L16.6657 25.0955L16.0445 25.3019L15.8664 25.239L16.3211 25.1311ZM15.5993 24.8776L15.7564 24.4973C16.0477 24.4596 16.1168 24.6031 16.3357 24.6943L16.3986 24.7906L16.0728 25.0138L15.8078 25.0316L15.5993 24.8776ZM15.065 25.987L15.4537 25.3019C15.7114 25.3019 15.7428 25.3228 15.8486 25.459C15.8958 25.5386 15.8549 25.4957 15.7522 25.5135L15.7282 25.7492L16.1325 25.812C16.0529 26.01 16.0403 25.9838 15.9209 26.1095C15.5228 26.1305 15.3426 26.0551 15.065 25.987ZM14.6167 25.0316L15.2945 25.2359L15.3322 25.3165L14.8974 25.8424L14.2657 25.635L14.6167 25.0316ZM12.0051 24.3004L12.0134 24.2197L12.3916 24.5109L12.4241 24.5885C11.6374 25.196 12.841 27.176 14.2102 25.8927L14.799 26.1294C14.5727 26.5328 14.184 26.692 13.7744 26.9204C12.7949 27.0021 11.4247 25.4024 12.0051 24.3004ZM12.9186 24.5769L12.9332 24.7603C12.8599 24.7047 12.7866 24.6513 12.7153 24.5958L12.6661 24.49L12.9186 24.5769ZM14.2657 25.7251L13.7786 26.1022C12.819 26.2028 12.4304 25.5386 12.399 24.7225L12.5865 24.4963L12.6682 24.49C13.1511 24.8703 13.5785 25.4506 14.2343 25.6423L14.2657 25.7251ZM13.3365 21.7862C13.2496 21.7233 13.2443 21.6919 13.2003 21.5851L13.3826 20.8916L13.5953 20.7051L13.7325 20.9062L13.3365 21.7862ZM13.2003 22.0198L13.6204 21.0256L13.7063 20.9754C13.9001 21.3169 14.1809 21.4719 14.2657 21.936L13.633 22.597C13.4362 22.4504 13.2857 22.2505 13.1993 22.0208L13.2003 22.0198ZM13.9997 22.8474L14.5339 22.3267L14.799 22.8683C14.5329 22.86 14.2668 22.8537 13.9997 22.8474ZM15.3322 17.3843C15.0797 17.9238 14.7434 18.2904 14.5423 18.8132C14.4543 18.3386 14.9844 17.6566 15.1551 17.2376L15.2368 17.1905L15.3322 17.3843ZM15.3322 15.8967C15.7292 15.7741 15.9953 15.55 16.2792 15.2985L16.3997 15.6589L16.0623 16.1094L15.3322 15.8967ZM16.6657 15.925L16.5212 16.1094L16.3997 16.0884L16.4017 16.0591L16.6448 15.8391L16.6657 15.925ZM16.4562 14.7601L16.4981 14.758L16.6657 15.111L16.6029 15.2985C16.3588 15.1707 16.3682 15.0188 16.4562 14.7601ZM16.4059 22.597L16.6521 22.7741L16.3997 22.663C16.4011 22.6409 16.4032 22.6189 16.4059 22.597ZM16.4017 22.8683L16.6657 22.9825C16.6642 22.993 16.6628 23.0034 16.6615 23.0139L16.0959 23.4089C15.9335 23.3356 15.9136 23.1899 15.8654 23.0318L15.8706 22.9982L16.4017 22.8683ZM15.6129 22.3267L15.8664 22.4294L15.7302 22.508L15.5993 22.5226L15.6129 22.3267ZM15.5993 16.9212C15.9199 17.0113 15.8182 16.9506 15.8319 17.1905C15.6852 17.1046 15.6747 17.0648 15.5993 16.9212ZM15.5993 21.7495L15.6213 21.5159C15.746 21.6029 15.7889 21.6542 15.8664 21.7862C15.7774 21.7738 15.6884 21.7616 15.5993 21.7495ZM16.1336 18.3732C16.033 18.502 16.0372 18.4675 15.8664 18.5418L15.9827 18.2716L16.1336 18.3732ZM16.1336 17.2858L15.966 17.4607C15.7983 17.3665 15.8769 17.4042 15.9523 17.2292L16.0519 17.1905L16.1336 17.2858ZM16.1116 16.8259L15.8664 16.6499C16.055 16.7222 16.011 16.6782 16.1116 16.8259ZM15.5993 21.7862L15.8664 21.9988C15.7302 21.9957 15.6569 21.9664 15.5993 21.7862ZM16.3997 21.7757L16.2907 21.7862L16.1975 21.6144L16.1325 21.5306L16.2771 21.5159C16.3179 21.6029 16.3577 21.6898 16.3997 21.7757ZM16.253 16.7704L16.1325 16.651C16.2498 16.7327 16.1723 16.6531 16.2519 16.7714L16.253 16.7704ZM16.2687 21.2226L16.1325 20.9397L16.1901 20.7072L16.2237 20.7051L16.3997 21.2456C16.356 21.2379 16.3124 21.2302 16.2687 21.2226ZM15.57 24.3685L15.5993 24.4041L15.504 24.7613C15.3918 24.7147 15.293 24.6409 15.2165 24.5465C15.1401 24.4521 15.0883 24.3402 15.0661 24.2208L15.57 24.3695V24.3685ZM14.799 24.7613L15.0661 24.9981C14.8953 24.9226 14.8849 24.9258 14.799 24.7613ZM15.2599 22.3644L15.2913 22.5981L15.0661 22.3278L15.2599 22.3644ZM14.9959 23.6289L14.799 23.1397C15.0326 23.2287 15.2148 23.4958 15.3332 23.6802L14.9959 23.6289ZM15.2054 18.8163L15.2714 18.8142L15.0766 19.0845C15.0451 19.0174 15.0839 18.9535 15.1918 18.875L15.2054 18.8163ZM15.0661 21.1398L15.0127 21.2467L14.8597 21.1283C14.8394 21.0854 14.8192 21.0424 14.799 20.9995L15.0085 20.9764L15.0661 21.1398ZM13.1993 23.4099C13.7336 23.7577 14.6418 24.0804 14.799 24.7613C14.1655 24.445 13.617 23.9816 13.1993 23.4099ZM14.5852 23.148L14.799 23.4099L14.2657 23.1397L14.5852 23.148ZM16.5379 23.9505L16.1325 23.5419L16.8417 22.8694L16.9329 23.61L16.5379 23.9505ZM16.9329 24.402L17.0031 24.226L17.0973 24.2208L17.199 24.491L16.9329 24.402ZM17.2922 23.4099L17.199 23.1397L17.3928 23.1753L17.2922 23.4099ZM16.9329 14.3065L16.935 14.2824C17.023 14.2614 17.111 14.2405 17.199 14.2174L17.0146 14.4877L16.9329 14.3065ZM14.2437 19.8953L13.9997 19.3548C14.3129 19.4228 14.2615 19.646 14.2437 19.8953ZM13.5911 20.1656C13.3627 20.0074 13.2171 19.6921 13.1993 19.3548C13.6676 19.4648 13.6414 19.6491 13.7336 20.0765L13.5911 20.1656ZM13.3156 18.7545C12.9751 18.4329 13.4706 17.1465 13.6885 16.85C13.8038 16.7044 13.9483 16.7075 14.139 16.651L14.2657 16.6834C13.9452 17.2512 13.7294 18.0243 13.6529 18.8142L13.3156 18.7545ZM12.818 23.1397L12.9804 23.4131L12.8347 23.7535L12.7509 23.8426C12.8704 23.8593 12.8976 23.7567 13.0757 23.6111C13.4214 24.1715 13.9494 24.7079 14.5318 25.0127L14.2144 25.5721L13.2506 24.952C13.1406 24.7477 13.2925 24.513 13.1155 24.3884C12.9552 24.2752 12.7488 24.4387 12.5854 24.3894L12.1329 23.9746C12.2659 23.6771 12.3937 23.3858 12.6567 23.2339L12.818 23.1397ZM11.8961 20.1582C11.9325 19.8886 11.9846 19.6214 12.0522 19.3579L12.0878 19.3548L12.2271 20.1582L12.3005 20.5773C12.51 21.1618 12.7216 21.7453 12.9332 22.3278C12.4262 22.0512 12.113 21.4112 12.158 20.55C12.0365 20.8277 12.1371 21.2645 12.1769 21.5096C11.8657 21.2456 11.827 20.7208 11.8961 20.1582ZM11.4331 20.4359C11.3846 20.3336 11.3542 20.2237 11.343 20.1111C11.3281 19.9595 11.3295 19.8067 11.3472 19.6554L11.3933 19.559L11.5997 19.3548L11.4834 20.1101L11.4331 20.4348V20.4359ZM29.9983 23.1386L29.465 22.9333L29.9825 22.8694L29.9983 23.1386ZM15.8874 27.5384L16.0267 27.4651L15.8654 27.7343L15.8863 27.5395L15.8874 27.5384ZM11.8657 18.2737L11.6384 18.2527C11.3556 18.1595 11.0905 17.8295 11.0664 17.4628C11.4991 17.5016 11.6457 17.7069 11.8595 17.9573C11.8615 18.062 11.8647 18.1679 11.8657 18.2737ZM11.8343 18.2517C11.8657 17.6682 11.4205 17.3036 10.8423 17.3193C10.9407 16.5001 11.6531 16.0811 12.2879 15.8056L12.4105 15.7961C12.3047 16.8249 12.3853 17.7111 12.0009 18.6015C11.717 19.2573 10.7103 19.2448 10.7647 20.2567L10.7721 20.3405C10.9156 21.6856 12.378 21.959 12.5802 23.1418C10.4117 24.2448 13.0547 28.8804 14.7696 26.1577C15.0776 26.2017 15.351 26.341 15.7334 26.207C15.9115 26.1085 15.9461 26.0289 16.0152 25.8235L16.628 26.141L16.6595 26.2185C16.0979 26.6543 15.702 27.2524 15.0986 27.661L15.1562 27.4955L14.999 27.4672L14.9121 27.5143L14.8335 27.881C15.1782 28.233 16.2226 26.9602 16.5285 26.7108C16.3557 27.3153 15.9282 27.6264 15.6904 28.1795L15.7638 28.255C16.2142 27.9323 16.7663 27.0188 16.8501 26.3243L17.5247 26.4364C16.6794 27.5793 14.5077 30.0935 13.3659 30.765C13.5398 30.2192 13.8163 29.8022 13.9567 29.3539L13.875 29.3602C13.8506 29.3349 13.8262 29.3098 13.8017 29.2847C13.5241 29.8316 13.0663 30.216 12.9845 30.9535C13.0334 31.0266 13.0951 31.0902 13.1668 31.1411C14.5245 30.9148 16.7914 27.5028 17.8746 26.5705C17.5813 29.5142 16.0037 29.973 14.6355 31.756C15.879 31.1358 16.6333 29.554 17.6966 28.6761C17.5792 29.9049 17.2869 32.6527 16.5515 33.1419L16.6731 33.1325C17.4986 32.6192 17.5467 30.5083 17.8223 29.4293L17.9396 28.2948L19.1181 26.6396L19.204 26.5925C19.336 27.0063 19.9331 27.4557 20.5795 27.3352L21.0436 27.1404L22.2085 27.5761C22.3614 29.2523 22.3028 30.1919 21.2416 31.4679C22.3258 30.9137 22.7239 28.7788 22.3625 27.6453C24.884 27.9376 24.7824 27.0869 24.3047 25.2505L24.7478 25.2579C24.6661 25.1353 24.445 25.2264 24.2764 25.1321C24.1999 25.0829 24.2146 25.0923 24.1674 25.019C24.7667 24.3433 26.2102 25.0148 25.9064 26.1368C26.3213 25.2065 25.4046 24.3789 24.5215 24.7121C24.8986 24.2648 25.3554 23.8971 25.5942 23.3052L25.6801 23.2591L27.7543 25.438L27.8769 25.4286L27.9712 25.3008C27.3112 24.5193 26.6523 23.7368 25.9944 22.9542L26.206 22.8579C26.2528 22.8096 26.3102 22.773 26.3737 22.751C26.4372 22.729 26.505 22.7222 26.5716 22.7311C26.5367 22.7137 26.5017 22.6963 26.4669 22.6787C27.526 22.7845 28.8794 23.6676 29.9846 23.3827C30.0863 23.2057 30.0915 23.1103 30.0297 22.9375C31.2072 22.9668 33.3254 22.5729 34 22.0009C32.1877 22.3812 30.147 22.5101 28.4835 22.288L27.0095 22.1151L26.9268 22.1214L27.3238 21.4091C28.539 21.386 31.7257 21.3556 32.37 20.593L32.2275 20.4023L31.6723 20.3227C31.6241 20.394 31.6168 20.461 31.6094 20.5291L32.0494 20.5762C31.094 20.8172 28.4332 21.3253 27.5647 21.0288C27.4736 20.9177 27.5406 20.5322 27.5448 20.2546C27.5464 20.205 27.5443 20.1552 27.5385 20.1059C28.7873 19.7329 29.7144 18.8928 30.0946 17.6252C30.3115 16.8992 30.168 15.9459 30.6373 15.4934C30.9369 15.5196 30.9976 15.6463 31.2176 15.7322C31.1014 15.5709 30.9348 15.4808 30.7263 15.4075L30.3356 15.6767C29.9784 15.815 29.6044 15.4536 28.9978 15.7354C28.5055 15.3143 28.2278 14.649 27.5626 14.3945L27.4945 14.2792L28.3012 13.4946C28.0372 13.7156 27.768 13.9765 27.4987 14.2384L26.9582 13.9964L26.9268 13.9178C27.5427 13.482 28.0896 13.3207 28.7904 13.459C28.8229 13.5239 28.8574 13.5878 28.891 13.6528C28.8585 13.7083 28.8292 13.724 28.8009 13.7397L28.5652 13.6769C28.6668 13.7366 28.7726 13.7555 28.8784 13.7743L28.9674 13.6874L28.9811 13.5658C28.8281 13.4297 28.781 13.3312 28.4803 13.3207L28.6238 13.1091C28.2802 13.3459 27.5825 13.4087 27.241 13.614L28.0309 12.9918L28.1252 12.865L26.6638 13.7366C26.3516 13.7156 26.0196 13.569 25.8509 13.394C25.824 13.3961 25.7971 13.3982 25.7702 13.4003L27.505 12.227L27.4767 12.1087C26.8189 12.4921 26.1599 12.8755 25.5031 13.26L24.8725 13.1049L24.9311 12.5382L29.4535 8.98688L29.5342 8.9806L29.4703 8.82451C29.3027 8.74489 28.6144 9.30325 28.3546 9.46982C27.3531 10.112 26.4679 10.9113 25.4832 11.4916C25.8897 10.9752 26.6334 10.4608 26.757 9.70866L26.558 9.68352L26.2479 9.94751L26.5852 9.80085C26.3674 10.464 25.3805 11.6477 24.8232 12.0228L24.7583 11.8667C25.1207 11.257 25.478 10.4367 25.3103 9.65419L25.0065 9.4761L24.6808 9.5002C24.8892 9.58295 25.0306 9.60286 25.1836 9.70447C25.281 10.4629 24.9081 10.9762 24.7069 11.5901L24.621 11.6362C24.487 11.3879 24.4953 11.2685 24.2198 11.2235L24.1957 11.0642L24.3843 10.8086L24.5142 10.7185C24.5582 10.8023 24.5603 10.772 24.5739 10.9155C24.6125 10.8538 24.6339 10.7829 24.6357 10.7101L24.4817 10.641L24.0742 11.0726C23.7337 10.8453 23.3587 10.6064 22.88 10.5174C23.1513 9.95484 23.9757 9.05078 23.5504 8.33738C23.0308 7.46999 21.2573 8.46938 20.6078 9.15764C20.5324 9.23438 20.467 9.32025 20.4129 9.41325C20.4548 9.37972 20.5219 9.32735 20.6078 9.2624C21.2489 8.7847 22.9554 7.64075 23.3252 8.55528C23.7128 9.06545 22.9701 10.047 22.7679 10.4462C22.0765 10.376 21.3536 10.31 20.6099 10.3246C19.827 10.3315 19.0497 10.4565 18.3041 10.6955C17.927 10.8201 16.3179 11.7839 16.2561 11.7713L15.5228 11.0611L13.9892 10.2911L13.9808 10.3718L13.8907 10.4587L15.856 12.1223L15.5564 12.3056C14.7476 11.6928 14.1903 11.3209 12.9866 11.0077L12.7834 11.0234C13.4863 11.5074 14.1945 11.9505 14.9016 12.3947L15.043 12.5853C14.5381 12.798 14.3244 13.24 13.898 13.5145C13.2318 13.196 12.6148 12.9069 11.8071 12.6628L11.7505 12.8283L13.2632 13.8026L13.3449 13.7963L13.0841 13.9765C12.9636 14.3819 12.7279 14.8523 12.5309 15.4242C11.7767 16.0381 10.7993 16.0015 10.6474 17.2523C10.4065 17.3183 10.2368 17.3392 10.0168 17.5005L10 17.6629C10.1383 17.8557 11.3629 18.3742 11.6552 18.4245L11.8354 18.2506L11.8343 18.2517ZM20.7806 9.60286L20.8927 9.62381L20.7429 9.60495C20.7167 9.60495 20.6905 9.60705 20.6654 9.6081C20.7838 9.3881 21.1316 9.33363 21.4657 9.35773L21.4427 9.51696L20.789 9.54943L20.7806 9.60286ZM21.2478 9.89304L21.5621 9.79037C21.6983 9.5641 21.7758 9.3242 21.7067 9.10526C21.383 9.04136 21.1965 9.11993 20.8938 9.24773C20.8387 9.33731 20.7838 9.42705 20.7293 9.51696L20.6664 9.62171C20.6858 9.6442 20.7068 9.66521 20.7293 9.68457C20.832 9.76838 20.9556 9.79771 21.1829 9.77885C21.2457 9.8857 21.1724 9.83856 21.0603 9.8679L21.2489 9.89304H21.2478ZM29.0031 12.3266L28.6657 12.3894L28.8732 12.3747L29.111 12.4774L28.7506 13.1374C28.936 12.9184 29.1204 12.7634 29.199 12.4313L29.0031 12.3266ZM27.065 22.8704C26.9812 22.7206 26.8901 22.6222 26.799 22.5991C26.8796 22.6756 26.9729 22.7657 27.065 22.8704ZM25.9986 26.1137L25.7325 26.2688L25.9368 26.2499L25.9997 26.1137H25.9986ZM27.065 22.8704C27.3364 23.1763 27.5396 23.763 27.4809 24.2218C27.7889 23.5566 27.438 23.1417 27.065 22.8704Z" fill="white"/>
</svg>
