<svg width="40" height="40" viewBox="0 0 40 40" fill="none" xmlns="http://www.w3.org/2000/svg">
<path d="M20 0C14.6957 0 9.60859 2.10714 5.85786 5.85786C2.10714 9.60859 0 14.6957 0 20C0 25.3043 2.10714 30.3914 5.85786 34.1421C9.60859 37.8929 14.6957 40 20 40C25.3043 40 30.3914 37.8929 34.1421 34.1421C37.8929 30.3914 40 25.3043 40 20C40 14.6957 37.8929 9.60859 34.1421 5.85786C30.3914 2.10714 25.3043 0 20 0Z" fill="#000C9D"/>
<path d="M12.598 20.6392V26H10.0263V13.6364H12.5256V18.3633H12.6342C12.8435 17.8159 13.1816 17.3873 13.6484 17.0774C14.1153 16.7635 14.7009 16.6065 15.4052 16.6065C16.0491 16.6065 16.6106 16.7474 17.0895 17.0291C17.5724 17.3068 17.9467 17.7073 18.2124 18.2305C18.482 18.7496 18.6148 19.3714 18.6108 20.0959V26H16.0391V20.5547C16.0431 19.9832 15.8982 19.5385 15.6044 19.2205C15.3146 18.9026 14.9081 18.7436 14.3849 18.7436C14.0348 18.7436 13.7249 18.8181 13.4553 18.967C13.1896 19.1159 12.9804 19.3332 12.8274 19.619C12.6785 19.9007 12.602 20.2408 12.598 20.6392ZM23.2064 20.6392V26H20.6347V13.6364H23.134V18.3633H23.2426C23.4519 17.8159 23.79 17.3873 24.2568 17.0774C24.7237 16.7635 25.3093 16.6065 26.0136 16.6065C26.6575 16.6065 27.219 16.7474 27.6979 17.0291C28.1808 17.3068 28.5551 17.7073 28.8208 18.2305C29.0904 18.7496 29.2232 19.3714 29.2192 20.0959V26H26.6475V20.5547C26.6515 19.9832 26.5066 19.5385 26.2128 19.2205C25.923 18.9026 25.5165 18.7436 24.9933 18.7436C24.6432 18.7436 24.3333 18.8181 24.0637 18.967C23.798 19.1159 23.5887 19.3332 23.4358 19.619C23.2869 19.9007 23.2104 20.2408 23.2064 20.6392Z" fill="white"/>
</svg>
