<svg width="40" height="40" viewBox="0 0 40 40" fill="none" xmlns="http://www.w3.org/2000/svg">
<path d="M20 0C8.954 0 0 8.954 0 20C0 31.046 8.954 40 20 40C31.046 40 40 31.046 40 20C40 8.954 31.046 0 20 0Z" fill="#000C9D"/>
<path d="M10 15H14V30H10V15ZM11.988 13H11.966C10.772 13 10 12.11 10 10.999C10 9.864 10.796 9 12.011 9C13.228 9 13.977 9.864 14 10.999C14 12.11 13.228 13 11.988 13ZM31 20.5C31 17.462 28.538 15 25.5 15C23.638 15 21.995 15.928 21 17.344V15H17V30H21V22C21 20.343 22.343 19 24 19C25.657 19 27 20.343 27 22V30H31C31 30 31 20.921 31 20.5Z" fill="white"/>
</svg>
