<svg width="48" height="48" viewBox="0 0 48 48" fill="none" xmlns="http://www.w3.org/2000/svg">
<path d="M24 4C12.954 4 4 12.954 4 24C4 35.046 12.954 44 24 44C35.046 44 44 35.046 44 24C44 12.954 35.046 4 24 4Z" fill="#000C9D"/>
<path opacity="0.05" d="M30 35V26C30 24.897 29.103 24 28 24C26.897 24 26 24.897 26 26V35H20V18H26V19.027C27.04 18.359 28.252 18 29.5 18C33.084 18 36 20.916 36 24.5V35H30ZM13 35V18H15.966C14.247 18 13 16.738 13 14.999C13 13.261 14.267 12 16.011 12C17.707 12 18.964 13.252 19 14.979C19 16.733 17.733 18 15.988 18H19V35H13Z" fill="black"/>
<path opacity="0.07" d="M30.5 34.5V26C30.5 24.622 29.379 23.5 28 23.5C26.621 23.5 25.5 24.622 25.5 26V34.5H20.5V18.5H25.5V20.034C26.59 19.057 28.012 18.5 29.5 18.5C32.809 18.5 35.5 21.191 35.5 24.5V34.5H30.5ZM13.5 34.5V18.5H18.5V34.5H13.5ZM15.966 17.5C14.537 17.5 13.5 16.448 13.5 14.999C13.5 13.551 14.556 12.5 16.011 12.5C17.447 12.5 18.47 13.523 18.5 14.989C18.5 16.448 17.443 17.5 15.988 17.5H15.966Z" fill="black"/>
<path d="M14 19H18V34H14V19ZM15.988 17H15.966C14.772 17 14 16.11 14 14.999C14 13.864 14.796 13 16.011 13C17.228 13 17.977 13.864 18 14.999C18 16.11 17.228 17 15.988 17ZM35 24.5C35 21.462 32.538 19 29.5 19C27.638 19 25.995 19.928 25 21.344V19H21V34H25V26C25 24.343 26.343 23 28 23C29.657 23 31 24.343 31 26V34H35C35 34 35 24.921 35 24.5Z" fill="white"/>
</svg>
