<svg width="40" height="40" viewBox="0 0 40 40" fill="none" xmlns="http://www.w3.org/2000/svg">
<path d="M20 0C14.6957 0 9.60859 2.10714 5.85786 5.85786C2.10714 9.60859 0 14.6957 0 20C0 25.3043 2.10714 30.3914 5.85786 34.1421C9.60859 37.8929 14.6957 40 20 40C25.3043 40 30.3914 37.8929 34.1421 34.1421C37.8929 30.3914 40 25.3043 40 20C40 14.6957 37.8929 9.60859 34.1421 5.85786C30.3914 2.10714 25.3043 0 20 0Z" fill="#000C9D"/>
<path d="M32 12.3082C31.1153 12.701 30.1669 12.9647 29.17 13.0844C30.1875 12.4746 30.9694 11.5095 31.336 10.361C30.3858 10.924 29.329 11.3336 28.2086 11.5544C27.3107 10.5967 26.0313 10 24.6154 10C21.8957 10 19.6904 12.2034 19.6904 14.9231C19.6904 15.3084 19.7353 15.6844 19.8195 16.0454C15.7269 15.8396 12.1001 13.8794 9.67033 10.8997C9.24573 11.6292 9.00444 12.4746 9.00444 13.3762C9.00444 15.0839 9.87234 16.5915 11.1948 17.4763C10.3867 17.4501 9.62731 17.2275 8.96329 16.859C8.96329 16.8796 8.96329 16.9002 8.96329 16.9207C8.96329 19.3075 10.6617 21.2958 12.9119 21.7503C12.5004 21.8625 12.0645 21.9224 11.6156 21.9224C11.2976 21.9224 10.989 21.8924 10.6879 21.8326C11.3163 23.7872 13.1344 25.2144 15.2874 25.2537C13.6039 26.5742 11.4809 27.3598 9.17278 27.3598C8.77437 27.3598 8.38345 27.3374 8 27.2906C10.1772 28.6897 12.766 29.5034 15.5473 29.5034C24.6042 29.5034 29.5572 22.0009 29.5572 15.4954C29.5572 15.2822 29.5516 15.0671 29.5441 14.8576C30.5055 14.1637 31.3397 13.2958 32 12.3082Z" fill="white"/>
</svg>
